<svg width="510" height="41" viewBox="0 0 510 41" fill="none" xmlns="http://www.w3.org/2000/svg">
<mask id="path-1-inside-1_462_13224" fill="white">
<path fill-rule="evenodd" clip-rule="evenodd" d="M7.5 9.62512C7.5 6.03527 10.4101 3.12512 14 3.12512C17.5899 3.12512 20.5 6.03527 20.5 9.62512V11.8126H22.5V9.62512C22.5 4.9307 18.6944 1.12512 14 1.12512C9.30558 1.12512 5.5 4.9307 5.5 9.62512V11.8126H7.5V9.62512ZM26.2353 36.4999V19.7941C26.2353 18.6895 25.3399 17.7941 24.2353 17.7941H22.0588H20.6172H7.11719H4C2.89543 17.7941 2 18.6895 2 19.7941V36.5C2 37.6045 2.89543 38.5 4 38.5H24.2353C25.3399 38.5 26.2353 37.6045 26.2353 36.4999ZM28.2353 19.7941V36.4999C28.2353 38.7091 26.4444 40.5 24.2353 40.5H4C1.79086 40.5 0 38.7091 0 36.5V19.7941C0 17.5849 1.79086 15.7941 4 15.7941H7.11719H20.6172H22.0588H24.2353C26.4444 15.7941 28.2353 17.5849 28.2353 19.7941ZM11.5285 30.4003L18.7526 22.2733L20.2474 23.602L12.2474 32.602L11.4715 33.4749L10.7284 32.5738L7.72844 28.9352L9.27156 27.6629L11.5285 30.4003Z"/>
</mask>
<path d="M20.5 11.8126H18.5V13.8126H20.5V11.8126ZM22.5 11.8126V13.8126H24.5V11.8126H22.5ZM5.5 11.8126H3.5V13.8126H5.5V11.8126ZM7.5 11.8126V13.8126H9.5V11.8126H7.5ZM18.7526 22.2733L20.0813 20.7784L18.5865 19.4497L17.2578 20.9445L18.7526 22.2733ZM11.5285 30.4003L9.98543 31.6726L11.4715 33.4749L13.0234 31.729L11.5285 30.4003ZM20.2474 23.602L21.7422 24.9307L23.071 23.4359L21.5761 22.1072L20.2474 23.602ZM12.2474 32.602L10.7526 31.2733H10.7526L12.2474 32.602ZM11.4715 33.4749L9.92833 34.7473L11.4144 36.5496L12.9663 34.8037L11.4715 33.4749ZM10.7284 32.5738L9.18532 33.8461L9.18532 33.8461L10.7284 32.5738ZM7.72844 28.9352L6.45613 27.3921L4.91301 28.6644L6.18532 30.2076L7.72844 28.9352ZM9.27156 27.6629L10.8147 26.3906L9.54237 24.8475L7.99925 26.1198L9.27156 27.6629ZM14 1.12512C9.30558 1.12512 5.5 4.9307 5.5 9.62512H9.5C9.5 7.13984 11.5147 5.12512 14 5.12512V1.12512ZM22.5 9.62512C22.5 4.9307 18.6944 1.12512 14 1.12512V5.12512C16.4853 5.12512 18.5 7.13984 18.5 9.62512H22.5ZM22.5 11.8126V9.62512H18.5V11.8126H22.5ZM22.5 9.81262H20.5V13.8126H22.5V9.81262ZM20.5 9.62512V11.8126H24.5V9.62512H20.5ZM14 3.12512C17.5899 3.12512 20.5 6.03527 20.5 9.62512H24.5C24.5 3.82613 19.799 -0.874878 14 -0.874878V3.12512ZM7.5 9.62512C7.5 6.03527 10.4101 3.12512 14 3.12512V-0.874878C8.20101 -0.874878 3.5 3.82613 3.5 9.62512H7.5ZM7.5 11.8126V9.62512H3.5V11.8126H7.5ZM7.5 9.81262H5.5V13.8126H7.5V9.81262ZM5.5 9.62512V11.8126H9.5V9.62512H5.5ZM24.2353 19.7941V36.4999H28.2353V19.7941H24.2353ZM24.2353 19.7941H24.2353H28.2353C28.2353 17.5849 26.4444 15.7941 24.2353 15.7941V19.7941ZM22.0588 19.7941H24.2353V15.7941H22.0588V19.7941ZM20.6172 19.7941H22.0588V15.7941H20.6172V19.7941ZM7.11719 19.7941H20.6172V15.7941H7.11719V19.7941ZM4 19.7941H7.11719V15.7941H4V19.7941ZM4 19.7941V19.7941V15.7941C1.79086 15.7941 0 17.5849 0 19.7941H4ZM4 36.5V19.7941H0V36.5H4ZM4 36.5H4H0C0 38.7091 1.79086 40.5 4 40.5V36.5ZM24.2353 36.5H4V40.5H24.2353V36.5ZM24.2353 36.4999V36.5V40.5C26.4444 40.5 28.2353 38.7091 28.2353 36.4999H24.2353ZM30.2353 36.4999V19.7941H26.2353V36.4999H30.2353ZM24.2353 42.5C27.549 42.5 30.2353 39.8137 30.2353 36.4999H26.2353C26.2353 37.6045 25.3399 38.5 24.2353 38.5V42.5ZM4 42.5H24.2353V38.5H4V42.5ZM-2 36.5C-2 39.8137 0.686294 42.5 4 42.5V38.5C2.89543 38.5 2 37.6045 2 36.5H-2ZM-2 19.7941V36.5H2V19.7941H-2ZM4 13.7941C0.68629 13.7941 -2 16.4804 -2 19.7941H2C2 18.6895 2.89543 17.7941 4 17.7941V13.7941ZM7.11719 13.7941H4V17.7941H7.11719V13.7941ZM20.6172 13.7941H7.11719V17.7941H20.6172V13.7941ZM22.0588 13.7941H20.6172V17.7941H22.0588V13.7941ZM24.2353 13.7941H22.0588V17.7941H24.2353V13.7941ZM30.2353 19.7941C30.2353 16.4804 27.549 13.7941 24.2353 13.7941V17.7941C25.3399 17.7941 26.2353 18.6895 26.2353 19.7941H30.2353ZM17.2578 20.9445L10.0337 29.0716L13.0234 31.729L20.2474 23.602L17.2578 20.9445ZM21.5761 22.1072L20.0813 20.7784L17.4239 23.7681L18.9187 25.0968L21.5761 22.1072ZM13.7422 33.9307L21.7422 24.9307L18.7526 22.2733L10.7526 31.2733L13.7422 33.9307ZM12.9663 34.8037L13.7422 33.9307L10.7526 31.2733L9.97663 32.1462L12.9663 34.8037ZM9.18532 33.8461L9.92833 34.7473L13.0146 32.2026L12.2716 31.3015L9.18532 33.8461ZM6.18532 30.2076L9.18532 33.8461L12.2716 31.3015L9.27156 27.6629L6.18532 30.2076ZM7.99925 26.1198L6.45613 27.3921L9.00075 30.4784L10.5439 29.2061L7.99925 26.1198ZM13.0717 29.128L10.8147 26.3906L7.72844 28.9352L9.98543 31.6726L13.0717 29.128Z" fill="white" mask="url(#path-1-inside-1_462_13224)"/>
<path d="M36.8114 23.82L38.6674 23.852C38.7634 25.164 39.7874 26.044 41.3554 26.044C42.6834 26.044 43.6434 25.452 43.6434 24.38C43.6434 23.196 42.4754 22.94 40.6994 22.62C38.8434 22.3 37.0834 21.708 37.0834 19.484C37.0834 17.532 38.6834 16.204 41.0674 16.204C43.6274 16.204 45.2274 17.596 45.3074 19.66H43.4674C43.3234 18.524 42.4274 17.756 41.0674 17.756C39.8034 17.756 38.9234 18.3 38.9234 19.356C38.9234 20.508 40.0754 20.748 41.8354 21.052C43.6914 21.388 45.4994 21.98 45.4834 24.188C45.4834 26.204 43.8034 27.596 41.3394 27.596C38.5554 27.596 36.8754 26.06 36.8114 23.82ZM47.4231 27.5V16.3H54.7351V17.932H49.2631V21.036H53.7751V22.62H49.2631V25.868H54.9271V27.5H47.4231ZM61.279 27.596C58.015 27.596 55.983 25.34 55.983 21.9C55.983 18.492 58.079 16.204 61.391 16.204C63.951 16.204 65.791 17.74 66.159 20.108H64.255C63.887 18.7 62.831 17.82 61.311 17.82C59.183 17.82 57.871 19.5 57.871 21.9C57.871 24.284 59.151 25.98 61.263 25.98C62.815 25.98 63.887 25.116 64.239 23.692H66.143C65.791 26.06 63.887 27.596 61.279 27.596ZM67.921 22.7V16.3H69.761V22.796C69.761 24.876 70.561 25.964 72.321 25.964C74.113 25.964 74.913 24.876 74.913 22.796V16.3H76.753V22.7C76.753 25.884 75.233 27.596 72.321 27.596C69.425 27.596 67.921 25.884 67.921 22.7ZM79.055 27.5V16.3H83.471C85.807 16.3 87.375 17.692 87.375 19.868C87.375 21.372 86.511 22.572 85.199 23.036L87.567 27.5H85.519L83.359 23.436H80.895V27.5H79.055ZM83.327 17.9H80.895V21.836H83.327C84.639 21.836 85.487 21.068 85.487 19.868C85.487 18.668 84.639 17.9 83.327 17.9ZM89.3437 27.5V16.3H96.6557V17.932H91.1837V21.036H95.6957V22.62H91.1837V25.868H96.8477V27.5H89.3437Z" fill="white"/>
<path d="M36.5354 36.7825H37.2104C37.2629 37.4875 37.8104 37.9525 38.6129 37.9525C39.3179 37.9525 39.8204 37.63 39.8204 37.06C39.8204 36.4075 39.1754 36.2725 38.3804 36.1375C37.5329 35.995 36.6629 35.7175 36.6629 34.6975C36.6629 33.805 37.3904 33.205 38.4554 33.205C39.6254 33.205 40.3454 33.8575 40.4054 34.8025H39.7304C39.6554 34.195 39.1679 33.7975 38.4554 33.7975C37.7729 33.7975 37.3154 34.0975 37.3154 34.66C37.3154 35.29 37.9529 35.4175 38.7404 35.5525C39.5954 35.695 40.4729 35.98 40.4729 37C40.4729 37.9075 39.7079 38.545 38.6054 38.545C37.3229 38.545 36.5729 37.8175 36.5354 36.7825ZM41.1458 36.7825H41.8208C41.8733 37.4875 42.4208 37.9525 43.2233 37.9525C43.9283 37.9525 44.4308 37.63 44.4308 37.06C44.4308 36.4075 43.7858 36.2725 42.9908 36.1375C42.1433 35.995 41.2733 35.7175 41.2733 34.6975C41.2733 33.805 42.0008 33.205 43.0658 33.205C44.2358 33.205 44.9558 33.8575 45.0158 34.8025H44.3408C44.2658 34.195 43.7783 33.7975 43.0658 33.7975C42.3833 33.7975 41.9258 34.0975 41.9258 34.66C41.9258 35.29 42.5633 35.4175 43.3508 35.5525C44.2058 35.695 45.0833 35.98 45.0833 37C45.0833 37.9075 44.3183 38.545 43.2158 38.545C41.9333 38.545 41.1833 37.8175 41.1458 36.7825ZM49.1065 38.5H46.0615V33.25H46.714V37.9H49.1065V38.5ZM52.0304 38.5V33.25H55.3754V33.85H52.6829V35.53H54.9254V36.13H52.6829V37.9H55.4729V38.5H52.0304ZM56.9927 38.5H56.3552V33.25H56.9552L59.7752 37.3V33.25H60.4127V38.5H59.8127L56.9927 34.45V38.5ZM63.8384 38.545C62.3309 38.545 61.3859 37.48 61.3859 35.875C61.3859 34.285 62.3684 33.205 63.8909 33.205C65.0534 33.205 65.9009 33.88 66.0959 34.9675H65.4059C65.2034 34.24 64.6484 33.805 63.8609 33.805C62.7584 33.805 62.0534 34.66 62.0534 35.875C62.0534 37.0825 62.7284 37.945 63.8309 37.945C64.6409 37.945 65.2034 37.5175 65.3984 36.7825H66.0884C65.8934 37.87 65.0234 38.545 63.8384 38.545ZM67.0263 38.5V33.25H69.0363C70.0863 33.25 70.7838 33.88 70.7838 34.8625C70.7838 35.5975 70.3413 36.1675 69.6663 36.355L70.8438 38.5H70.1088L68.9988 36.4825H67.6788V38.5H67.0263ZM68.9913 33.85H67.6788V35.8825H68.9838C69.6738 35.8825 70.1163 35.4775 70.1163 34.8625C70.1163 34.2475 69.6738 33.85 68.9913 33.85ZM73.0864 36.5575L71.1064 33.25H71.8714L73.4164 35.8525L74.9839 33.25H75.7189L73.7389 36.5575V38.5H73.0864V36.5575ZM76.445 38.5V33.25H78.4625C79.5125 33.25 80.2025 33.88 80.2025 34.8625C80.2025 35.845 79.5125 36.4825 78.4625 36.4825H77.0975V38.5H76.445ZM78.41 33.85H77.0975V35.8825H78.4025C79.0925 35.8825 79.535 35.485 79.535 34.8625C79.535 34.24 79.1 33.85 78.41 33.85ZM80.5636 33.85V33.25H84.6211V33.85H82.9186V38.5H82.2661V33.85H80.5636ZM85.4315 38.5V33.25H86.084V38.5H85.4315ZM92.0664 35.875C92.0664 37.42 91.0389 38.545 89.5614 38.545C88.0839 38.545 87.0564 37.42 87.0564 35.875C87.0564 34.33 88.0839 33.205 89.5614 33.205C91.0389 33.205 92.0664 34.33 92.0664 35.875ZM87.7239 35.875C87.7239 37.0825 88.4664 37.945 89.5614 37.945C90.6564 37.945 91.3989 37.0825 91.3989 35.875C91.3989 34.6675 90.6564 33.805 89.5614 33.805C88.4664 33.805 87.7239 34.6675 87.7239 35.875ZM93.6786 38.5H93.0411V33.25H93.6411L96.4611 37.3V33.25H97.0986V38.5H96.4986L93.6786 34.45V38.5Z" fill="white"/>
<rect x="122.735" y="1" width="57.3333" height="39" rx="5.5" fill="white"/>
<rect x="122.735" y="1" width="57.3333" height="39" rx="5.5" stroke="#E5E7EB"/>
<path fill-rule="evenodd" clip-rule="evenodd" d="M153.578 14.0699L150.614 14.7058V12.3034L153.578 11.6792V14.0699ZM141.536 13.0453L138.655 13.6577L138.643 23.0908C138.643 24.8338 139.954 26.1174 141.701 26.1174C142.669 26.1174 143.377 25.9408 143.767 25.7288V23.3381C143.389 23.4912 141.524 24.033 141.524 22.29V18.1093H143.767V15.6008H141.524L141.536 13.0453ZM173.068 20.7944C173.068 17.7795 171.604 15.4006 168.807 15.4006C165.997 15.4006 164.297 17.7795 164.297 20.7708C164.297 24.3156 166.304 26.1057 169.184 26.1057C170.589 26.1057 171.652 25.7877 172.454 25.3402V22.9848C171.652 23.3853 170.731 23.6326 169.562 23.6326C168.417 23.6326 167.402 23.2322 167.272 21.8425H173.045C173.045 21.7776 173.049 21.6301 173.054 21.4603L173.054 21.4598L173.054 21.4594L173.054 21.4588C173.061 21.2283 173.068 20.9569 173.068 20.7944ZM167.236 19.6756C167.236 18.3448 168.051 17.7913 168.795 17.7913C169.515 17.7913 170.282 18.3448 170.282 19.6756H167.236ZM134.559 17.9562C133.933 17.9562 133.556 18.1329 133.556 18.5922C133.556 19.0936 134.206 19.3142 135.012 19.5879C136.327 20.034 138.058 20.6213 138.065 22.7964C138.065 24.9045 136.377 26.1175 133.922 26.1175C132.906 26.1175 131.797 25.9173 130.699 25.4462V22.6433C131.69 23.1851 132.942 23.5855 133.922 23.5855C134.583 23.5855 135.055 23.4088 135.055 22.8671C135.055 22.3116 134.35 22.0577 133.499 21.7512C132.203 21.2844 130.569 20.6955 130.569 18.7335C130.569 16.649 132.162 15.4007 134.559 15.4007C135.539 15.4007 136.507 15.5538 137.487 15.9424V18.7099C136.59 18.2271 135.456 17.9562 134.559 17.9562ZM147.439 16.4723L147.25 15.6009H144.7V25.9055H147.652V18.9219C148.348 18.0151 149.529 18.18 149.895 18.3095V15.6009C149.517 15.4595 148.136 15.2004 147.439 16.4723ZM150.614 15.6009H153.578V25.9055H150.614V15.6009ZM157.426 16.3192C157.839 15.9424 158.583 15.4006 159.74 15.4006C161.806 15.4006 163.754 17.2614 163.766 20.6766C163.766 24.4098 161.841 26.1057 159.728 26.1057C158.689 26.1057 158.063 25.67 157.638 25.3638L157.627 28.6966L154.675 29.3207V15.5891H157.272L157.426 16.3192ZM157.639 22.9613C157.922 23.2675 158.335 23.5148 159.032 23.5148C160.118 23.5148 160.85 22.3371 160.85 20.759C160.85 19.2163 160.106 18.0151 159.032 18.0151C158.359 18.0151 157.934 18.2506 157.627 18.5921L157.639 22.9613Z" fill="#6461FC"/>
<rect x="205.069" y="1" width="57.3333" height="39" rx="5.5" fill="white"/>
<rect x="205.069" y="1" width="57.3333" height="39" rx="5.5" stroke="#E5E7EB"/>
<path fill-rule="evenodd" clip-rule="evenodd" d="M234.152 29.0949C232.166 30.8087 229.59 31.8433 226.775 31.8433C220.494 31.8433 215.402 26.6924 215.402 20.3384C215.402 13.9843 220.494 8.83337 226.775 8.83337C229.59 8.83337 232.166 9.86796 234.152 11.5818C236.138 9.86796 238.714 8.83337 241.529 8.83337C247.81 8.83337 252.902 13.9843 252.902 20.3384C252.902 26.6924 247.81 31.8433 241.529 31.8433C238.714 31.8433 236.138 30.8087 234.152 29.0949Z" fill="#ED0006"/>
<path fill-rule="evenodd" clip-rule="evenodd" d="M234.152 29.0949C236.597 26.9847 238.148 23.8447 238.148 20.3384C238.148 16.832 236.597 13.692 234.152 11.5818C236.138 9.86796 238.714 8.83337 241.529 8.83337C247.81 8.83337 252.902 13.9843 252.902 20.3384C252.902 26.6924 247.81 31.8433 241.529 31.8433C238.714 31.8433 236.138 30.8087 234.152 29.0949Z" fill="#F9A000"/>
<path fill-rule="evenodd" clip-rule="evenodd" d="M234.152 11.5818C236.597 13.692 238.148 16.832 238.148 20.3383C238.148 23.8447 236.597 26.9847 234.152 29.0949C231.707 26.9847 230.156 23.8447 230.156 20.3383C230.156 16.832 231.707 13.692 234.152 11.5818Z" fill="#FF5E00"/>
<rect x="287.402" y="1" width="57.3333" height="39" rx="5.5" fill="white"/>
<rect x="287.402" y="1" width="57.3333" height="39" rx="5.5" stroke="#E5E7EB"/>
<path fill-rule="evenodd" clip-rule="evenodd" d="M304.611 27.597H301.077L298.427 17.4872C298.301 17.0222 298.034 16.6111 297.641 16.4173C296.661 15.9303 295.581 15.5428 294.402 15.3473V14.9581H300.095C300.88 14.9581 301.47 15.5428 301.568 16.2218L302.943 23.5144L306.475 14.9581H309.911L304.611 27.597ZM311.875 27.597H308.538L311.286 14.9581H314.623L311.875 27.597ZM318.941 18.4595C319.039 17.7788 319.629 17.3895 320.316 17.3895C321.397 17.2918 322.573 17.4873 323.555 17.9725L324.145 15.2513C323.163 14.8621 322.082 14.6666 321.102 14.6666C317.863 14.6666 315.506 16.4173 315.506 18.847C315.506 20.6954 317.175 21.666 318.354 22.2507C319.629 22.8337 320.12 23.2229 320.022 23.8059C320.022 24.6804 319.039 25.0696 318.059 25.0696C316.881 25.0696 315.702 24.7781 314.623 24.2911L314.034 27.014C315.213 27.4993 316.488 27.6948 317.666 27.6948C321.298 27.7908 323.555 26.0418 323.555 23.4166C323.555 20.1107 318.941 19.917 318.941 18.4595ZM335.236 27.597L332.586 14.9581H329.739C329.15 14.9581 328.561 15.3473 328.364 15.9303L323.457 27.597H326.893L327.579 25.7503H331.8L332.193 27.597H335.236ZM330.23 18.3618L331.21 23.1252H328.462L330.23 18.3618Z" fill="#172B85"/>
<rect x="369.735" y="1" width="57.3333" height="39" rx="5.5" fill="#1F72CD"/>
<rect x="369.735" y="1" width="57.3333" height="39" rx="5.5" stroke="#E5E7EB"/>
<path fill-rule="evenodd" clip-rule="evenodd" d="M379.693 14.6666L374.235 26.7445H380.769L381.579 24.8188H383.431L384.241 26.7445H391.432V25.2748L392.073 26.7445H395.793L396.434 25.2437V26.7445H411.391L413.21 24.8688L414.913 26.7445L422.595 26.7601L417.12 20.7393L422.595 14.6666H415.032L413.262 16.5077L411.612 14.6666H395.341L393.944 17.784L392.514 14.6666H385.994V16.0864L385.268 14.6666H379.693ZM402.028 16.3817H410.617L413.244 19.2193L415.956 16.3817H418.583L414.592 20.7376L418.583 25.0433H415.837L413.21 22.1727L410.484 25.0433H402.028V16.3817ZM404.149 19.7582V18.1761V18.1746H409.508L411.847 20.7048L409.405 23.2488H404.149V21.5216H408.835V19.7582H404.149ZM380.957 16.3817H384.142L387.762 24.5718V16.3817H391.251L394.047 22.254L396.624 16.3817H400.096V25.0484H397.984L397.966 18.2572L394.887 25.0484H392.997L389.9 18.2572V25.0484H385.555L384.731 23.1054H380.28L379.458 25.0467H377.13L380.957 16.3817ZM381.04 21.3093L382.507 17.8481L383.971 21.3093H381.04Z" fill="white"/>
<rect x="452.069" y="1" width="57.3333" height="39" rx="5.5" fill="white"/>
<rect x="452.069" y="1" width="57.3333" height="39" rx="5.5" stroke="#E5E7EB"/>
<path fill-rule="evenodd" clip-rule="evenodd" d="M468.069 25.9016H465.476C465.299 25.9016 465.148 26.0306 465.12 26.2056L464.071 32.8541C464.05 32.9853 464.152 33.1036 464.285 33.1036H465.523C465.7 33.1036 465.851 32.9746 465.879 32.7992L466.162 31.006C466.189 30.8304 466.34 30.7016 466.517 30.7016H467.338C469.046 30.7016 470.032 29.8751 470.289 28.2374C470.405 27.5209 470.294 26.9579 469.958 26.5635C469.59 26.1307 468.936 25.9016 468.069 25.9016ZM468.368 28.3299C468.226 29.2602 467.515 29.2602 466.828 29.2602H466.437L466.711 27.5227C466.727 27.4178 466.818 27.3404 466.924 27.3404H467.104C467.572 27.3404 468.014 27.3404 468.242 27.6072C468.378 27.7665 468.42 28.003 468.368 28.3299ZM475.819 28.3H474.577C474.471 28.3 474.38 28.3774 474.364 28.4825L474.309 28.8297L474.222 28.7039C473.953 28.3137 473.354 28.1834 472.756 28.1834C471.384 28.1834 470.212 29.2225 469.984 30.6802C469.865 31.4072 470.034 32.1025 470.446 32.5874C470.824 33.0332 471.366 33.219 472.01 33.219C473.115 33.219 473.728 32.5081 473.728 32.5081L473.673 32.8532C473.652 32.9851 473.754 33.1034 473.886 33.1034H475.004C475.182 33.1034 475.332 32.9744 475.36 32.799L476.031 28.5495C476.053 28.4188 475.951 28.3 475.819 28.3ZM474.088 30.7165C473.968 31.4258 473.405 31.902 472.687 31.902C472.327 31.902 472.039 31.7864 471.854 31.5672C471.67 31.3497 471.6 31.0399 471.659 30.695C471.771 29.9916 472.343 29.5 473.05 29.5C473.403 29.5 473.689 29.6171 473.878 29.8381C474.067 30.0614 474.142 30.373 474.088 30.7165ZM481.184 28.2999H482.431C482.606 28.2999 482.708 28.4958 482.609 28.6392L478.459 34.629C478.392 34.726 478.281 34.7837 478.163 34.7837H476.917C476.741 34.7837 476.639 34.5862 476.74 34.4425L478.032 32.6186L476.658 28.5857C476.611 28.4455 476.714 28.2999 476.863 28.2999H478.089C478.249 28.2999 478.389 28.4044 478.435 28.5569L479.164 30.9927L480.885 28.4579C480.953 28.359 481.065 28.2999 481.184 28.2999Z" fill="#253B80"/>
<path fill-rule="evenodd" clip-rule="evenodd" d="M494.711 32.8539L495.775 26.0839C495.792 25.9788 495.883 25.9015 495.989 25.9011H497.186C497.319 25.9011 497.42 26.0197 497.399 26.1509L496.35 32.799C496.323 32.9745 496.172 33.1034 495.994 33.1034H494.924C494.792 33.1034 494.69 32.9852 494.711 32.8539ZM486.562 25.9015H483.969C483.792 25.9015 483.641 26.0304 483.614 26.2055L482.565 32.8539C482.544 32.9852 482.646 33.1034 482.778 33.1034H484.109C484.232 33.1034 484.338 33.0132 484.357 32.8904L484.655 31.0059C484.682 30.8303 484.834 30.7015 485.011 30.7015H485.831C487.539 30.7015 488.525 29.875 488.782 28.2373C488.899 27.5208 488.787 26.9578 488.451 26.5634C488.083 26.1306 487.43 25.9015 486.562 25.9015ZM486.861 28.3297C486.72 29.2601 486.009 29.2601 485.321 29.2601H484.931L485.206 27.5225C485.222 27.4176 485.312 27.3402 485.418 27.3402H485.598C486.066 27.3402 486.508 27.3402 486.736 27.6071C486.872 27.7664 486.913 28.0029 486.861 28.3297ZM494.312 28.2999H493.071C492.964 28.2999 492.874 28.3773 492.858 28.4824L492.803 28.8296L492.716 28.7038C492.447 28.3136 491.848 28.1832 491.25 28.1832C489.878 28.1832 488.706 29.2224 488.478 30.6801C488.36 31.4071 488.528 32.1024 488.94 32.5873C489.319 33.0331 489.86 33.2189 490.504 33.2189C491.61 33.2189 492.223 32.508 492.223 32.508L492.167 32.8531C492.146 32.985 492.248 33.1032 492.381 33.1032H493.499C493.676 33.1032 493.827 32.9743 493.855 32.7989L494.526 28.5494C494.547 28.4187 494.445 28.2999 494.312 28.2999ZM492.581 30.7164C492.462 31.4257 491.899 31.9018 491.18 31.9018C490.821 31.9018 490.532 31.7862 490.347 31.5671C490.163 31.3496 490.094 31.0397 490.152 30.6948C490.264 29.9915 490.836 29.4999 491.543 29.4999C491.896 29.4999 492.182 29.6169 492.371 29.838C492.561 30.0613 492.636 30.3729 492.581 30.7164Z" fill="#179BD7"/>
<path d="M477.664 23.5231L477.983 21.4986L477.273 21.4821H473.882L476.238 6.54236C476.246 6.49726 476.269 6.4552 476.304 6.42534C476.339 6.39548 476.383 6.37903 476.43 6.37903H482.146C484.044 6.37903 485.354 6.77396 486.038 7.55345C486.358 7.91914 486.563 8.30126 486.661 8.72179C486.765 9.16305 486.767 9.69023 486.666 10.3332L486.658 10.3801V10.7921L486.979 10.9738C487.249 11.117 487.463 11.2809 487.628 11.4686C487.902 11.7813 488.08 12.1787 488.155 12.6498C488.232 13.1343 488.206 13.7108 488.08 14.3636C487.933 15.1144 487.697 15.7684 487.377 16.3035C487.084 16.7965 486.709 17.2054 486.265 17.5224C485.841 17.8235 485.337 18.0521 484.767 18.1984C484.215 18.3421 483.585 18.4147 482.895 18.4147H482.45C482.132 18.4147 481.823 18.5293 481.58 18.7347C481.337 18.9444 481.176 19.2307 481.127 19.544L481.093 19.7263L480.53 23.2945L480.504 23.4256C480.498 23.4672 480.486 23.4879 480.469 23.5019C480.454 23.5145 480.432 23.5231 480.411 23.5231H477.664Z" fill="#253B80"/>
<path d="M487.283 10.4279C487.266 10.5369 487.246 10.6485 487.224 10.7631C486.47 14.6337 483.891 15.9709 480.597 15.9709H478.92C478.517 15.9709 478.177 16.2634 478.114 16.6608L477.256 22.107L477.012 23.6507C476.972 23.9116 477.173 24.1468 477.436 24.1468H480.411C480.763 24.1468 481.062 23.8909 481.118 23.5435L481.147 23.3923L481.707 19.8379L481.743 19.643C481.798 19.2944 482.098 19.0384 482.45 19.0384H482.895C485.777 19.0384 488.033 17.8682 488.693 14.482C488.968 13.0674 488.826 11.8863 488.097 11.0556C487.876 10.8051 487.603 10.5973 487.283 10.4279Z" fill="#179BD7"/>
<path d="M486.494 10.1136C486.378 10.0801 486.259 10.0496 486.138 10.0222C486.015 9.99539 485.889 9.97161 485.76 9.9509C485.308 9.87775 484.813 9.84302 484.282 9.84302H479.801C479.691 9.84302 479.586 9.868 479.492 9.91311C479.285 10.0124 479.132 10.2081 479.095 10.4476L478.141 16.4849L478.114 16.661C478.177 16.2637 478.516 15.9711 478.919 15.9711H480.596C483.891 15.9711 486.47 14.6334 487.224 10.7633C487.246 10.6487 487.265 10.5372 487.282 10.4281C487.091 10.3269 486.885 10.2404 486.662 10.1666C486.608 10.1484 486.551 10.1307 486.494 10.1136Z" fill="#222D65"/>
<path d="M479.095 10.4475C479.132 10.208 479.285 10.0123 479.492 9.91359C479.586 9.86849 479.691 9.8435 479.801 9.8435H484.282C484.813 9.8435 485.308 9.87824 485.76 9.95138C485.889 9.9721 486.015 9.99587 486.138 10.0227C486.259 10.0501 486.378 10.0806 486.493 10.1141C486.551 10.1312 486.607 10.1488 486.663 10.1665C486.885 10.2403 487.092 10.3274 487.283 10.428C487.507 8.99757 487.281 8.02366 486.508 7.14176C485.655 6.1709 484.116 5.75525 482.147 5.75525H476.43C476.028 5.75525 475.685 6.04778 475.622 6.44576L473.241 21.5391C473.194 21.8377 473.425 22.1071 473.726 22.1071H477.255L478.141 16.4848L479.095 10.4475Z" fill="#253B80"/>
</svg>
